<?xml version="1.0" standalone="no"?>
<!DOCTYPE svg PUBLIC "-//W3C//DTD SVG 20010904//EN"
 "http://www.w3.org/TR/2001/REC-SVG-20010904/DTD/svg10.dtd">
<svg version="1.0" xmlns="http://www.w3.org/2000/svg"
 width="379.000000pt" height="424.000000pt" viewBox="0 0 379.000000 424.000000"
 preserveAspectRatio="xMidYMid meet">
<metadata>
Created by potrace 1.15, written by Peter Selinger 2001-2017
</metadata>
<g transform="translate(0.000000,424.000000) scale(0.100000,-0.100000)"
fill="#000000" stroke="none">
<path d="M2121 4208 c-25 -26 -31 -40 -31 -76 0 -24 5 -52 10 -62 7 -13 6 -28
-1 -47 -11 -30 -13 -36 -29 -122 -13 -70 -13 -233 0 -302 13 -71 60 -165 110
-221 l40 -46 -46 -27 c-64 -37 -173 -149 -218 -223 -62 -102 -79 -162 -84
-292 -3 -102 -1 -124 21 -193 35 -109 98 -209 187 -298 l76 -76 -46 -39 c-57
-48 -89 -92 -120 -166 l-24 -58 -72 0 c-82 0 -172 -28 -238 -72 l-39 -27 -60
41 c-64 44 -198 96 -311 121 -92 21 -336 21 -426 1 -294 -67 -499 -222 -571
-431 -23 -69 -25 -195 -4 -277 45 -170 209 -322 442 -406 57 -20 63 -26 81
-69 11 -25 25 -64 31 -86 38 -138 -27 -353 -122 -403 -81 -43 -96 -113 -37
-169 39 -36 99 -53 196 -53 141 0 224 46 224 125 0 67 -56 110 -165 124 -27 4
-49 11 -48 16 1 6 11 35 23 65 42 113 49 215 22 320 -11 41 -19 76 -18 76 0 1
88 4 194 6 l192 4 20 -64 c37 -119 23 -242 -42 -364 -22 -41 -39 -60 -60 -67
-38 -13 -88 -67 -88 -95 0 -11 9 -36 20 -54 58 -95 309 -111 409 -26 88 74 16
180 -136 200 -48 6 -52 8 -42 26 6 11 20 48 32 81 30 88 30 259 -1 336 -22 56
-21 71 3 71 36 0 219 106 280 162 l66 60 44 -12 c51 -14 72 -43 105 -141 24
-70 26 -153 5 -234 -16 -63 -73 -185 -85 -185 -5 0 -22 -13 -39 -29 -25 -24
-31 -37 -31 -71 0 -34 6 -47 30 -70 44 -41 93 -55 195 -55 106 0 171 21 210
66 68 81 -12 171 -164 185 l-70 7 14 26 c9 14 24 60 35 101 30 119 19 241 -34
361 -6 13 3 18 46 27 73 15 115 34 179 82 l54 41 14 -33 c17 -41 18 -168 2
-228 -7 -25 -26 -73 -42 -108 -25 -51 -38 -66 -72 -83 -57 -28 -77 -56 -77
-106 0 -34 5 -46 31 -67 98 -83 336 -71 408 20 61 77 -12 156 -166 180 l-42 6
23 47 c54 106 60 294 14 407 l-24 61 19 51 20 52 67 0 68 0 32 -51 c85 -132
209 -226 344 -260 49 -12 191 -8 356 10 75 8 110 18 168 47 140 68 198 171
138 241 -23 26 -30 28 -98 28 -62 0 -83 -5 -138 -32 -77 -38 -144 -103 -163
-158 -14 -39 -15 -40 -77 -49 -121 -18 -249 21 -343 104 -45 40 -123 137 -116
144 2 2 35 25 72 50 l69 46 76 -11 c233 -33 437 59 561 251 23 35 54 71 69 80
46 28 86 75 122 141 27 52 34 77 38 140 4 73 3 79 -21 103 -29 29 -91 36 -130
14 -37 -19 -86 -80 -120 -148 -27 -55 -32 -76 -31 -135 0 -38 4 -79 8 -91 6
-16 -3 -35 -41 -84 -90 -119 -190 -169 -354 -178 -60 -3 -99 -1 -103 6 -3 5 4
32 16 58 46 103 33 275 -28 380 l-24 40 53 14 c279 70 479 182 578 323 66 94
89 173 89 307 0 118 -18 199 -63 283 -35 67 -140 184 -202 227 -154 106 -395
175 -590 169 l-80 -3 -28 57 c-54 110 -59 280 -12 434 13 44 20 52 45 58 39 8
80 58 80 96 0 63 -53 119 -112 119 -35 0 -83 -34 -98 -70 -11 -26 -11 -41 -2
-76 10 -37 9 -52 -11 -111 -19 -59 -22 -89 -22 -228 0 -149 2 -165 27 -230 15
-38 26 -70 25 -71 -1 0 -24 -9 -52 -18 l-49 -16 -44 42 c-92 91 -136 249 -114
410 16 118 38 188 60 188 10 0 32 15 50 33 53 54 41 141 -23 172 -52 24 -88
19 -124 -17z m733 -1060 c55 -17 131 -91 145 -143 22 -79 8 -150 -41 -210
-118 -143 -348 -85 -388 98 -6 29 -7 54 -2 59 6 6 12 -3 15 -19 8 -39 51 -80
98 -95 53 -15 108 2 148 47 26 30 31 44 31 86 0 96 -59 154 -150 147 -55 -3
-52 6 6 27 49 18 86 18 138 3z"/>
</g>
</svg>
